<?xml version="1.0" standalone="no"?>
<!DOCTYPE svg PUBLIC "-//W3C//DTD SVG 20010904//EN"
 "http://www.w3.org/TR/2001/REC-SVG-20010904/DTD/svg10.dtd">
<svg version="1.0" xmlns="http://www.w3.org/2000/svg"
 width="500.000000pt" height="500.000000pt" viewBox="0 0 500.000000 500.000000"
 preserveAspectRatio="xMidYMid meet">

<g transform="translate(0.000000,500.000000) scale(0.100000,-0.100000)"
fill="#000000" stroke="none">
<path d="M0 2500 l0 -2500 2500 0 2500 0 0 2500 0 2500 -2500 0 -2500 0 0
-2500z m4530 430 l0 -430 -50 0 -50 0 0 375 0 375 -375 0 -375 0 0 55 0 55
425 0 425 0 0 -430z m-3030 -200 l0 -50 -80 0 -80 0 0 -65 0 -65 116 0 115 0
-3 -47 -3 -48 -112 -3 -113 -3 0 -114 0 -115 -55 0 -55 0 0 280 0 280 135 0
135 0 0 -50z m272 -75 l3 -125 100 125 100 124 69 1 c53 0 66 -3 59 -12 -5 -7
-55 -70 -111 -139 -56 -69 -102 -129 -102 -133 0 -5 44 -60 98 -123 143 -168
137 -153 55 -153 l-70 0 -74 91 c-41 51 -77 96 -80 102 -4 5 -24 -10 -46 -34
-22 -24 -56 -62 -76 -84 l-36 -40 -1 263 0 262 55 0 54 0 3 -125z m801 111
c207 -74 236 -392 45 -509 -57 -35 -153 -47 -223 -27 -55 15 -128 77 -158 134
-32 60 -32 212 0 272 27 51 101 117 145 131 47 15 146 14 191 -1z m707 -101
l0 -115 -55 0 -55 0 0 66 0 66 -47 -7 c-74 -10 -115 -35 -140 -85 -45 -88 -17
-204 59 -243 26 -13 68 -21 138 -24 l100 -6 0 -50 0 -50 -112 5 c-162 6 -240
45 -290 143 -26 50 -35 157 -19 222 33 133 132 191 329 192 l92 1 0 -115z
m415 -125 c48 -124 96 -246 106 -272 l19 -48 -58 0 -57 0 -39 113 c-22 61 -47
131 -56 155 l-16 43 -54 -156 -53 -155 -58 0 -59 0 21 53 c11 28 59 151 105
271 95 245 93 241 104 229 5 -4 47 -109 95 -233z m-3055 -415 l0 -375 373 -2
372 -3 0 -50 0 -50 -422 -3 -423 -2 0 430 0 430 50 0 50 0 0 -375z"/>
<path d="M2420 2669 c-66 -27 -100 -85 -100 -172 0 -108 59 -172 158 -172 102
0 156 60 157 176 0 55 -4 72 -27 106 -42 63 -120 89 -188 62z m94 -135 c9 -8
16 -22 16 -30 0 -55 -66 -75 -96 -29 -15 23 -15 27 0 50 19 29 56 33 80 9z"/>
</g>
</svg>
